<?xml version="1.0" standalone="no"?>
<!DOCTYPE svg PUBLIC "-//W3C//DTD SVG 20010904//EN"
 "http://www.w3.org/TR/2001/REC-SVG-20010904/DTD/svg10.dtd">
<svg version="1.0" xmlns="http://www.w3.org/2000/svg"
 width="200.000000pt" height="200.000000pt" viewBox="0 0 200.000000 200.000000"
 preserveAspectRatio="xMidYMid meet">
<metadata>
Created by potrace 1.14, written by Peter Selinger 2001-2017
</metadata>
<g transform="translate(0.000000,200.000000) scale(0.100000,-0.100000)"
fill="#000000" stroke="none">
<path d="M442 1714 c-53 -37 -52 -23 -52 -709 0 -707 -2 -688 65 -719 29 -14
101 -16 564 -16 583 0 585 0 615 59 14 26 16 110 16 682 l0 651 -34 34 -34 34
-559 0 c-490 0 -561 -2 -581 -16z m1131 -25 c12 -7 25 -17 29 -23 4 -6 8 -307
8 -668 l0 -657 -22 -15 c-20 -14 -90 -16 -567 -16 l-545 0 -23 22 -23 21 0
649 0 649 25 24 24 25 536 0 c385 0 542 -3 558 -11z"/>
<path d="M942 1528 c-28 -28 -7 -78 33 -78 12 0 26 5 33 12 7 7 12 21 12 33 0
12 -5 26 -12 33 -7 7 -21 12 -33 12 -12 0 -26 -5 -33 -12z"/>
<path d="M790 1494 c0 -3 26 -32 57 -65 l57 -60 -13 -37 c-18 -49 -27 -60 -60
-67 -19 -4 -44 1 -75 17 l-47 22 -50 -50 -51 -51 22 -43 c17 -34 20 -49 13
-79 -8 -33 -13 -37 -61 -50 l-52 -14 0 -72 0 -71 47 -15 c32 -10 53 -24 63
-41 13 -25 13 -31 -8 -73 -12 -25 -22 -51 -22 -58 0 -6 19 -32 42 -56 l41 -43
48 23 c43 19 53 21 87 11 35 -11 40 -17 56 -67 l17 -55 67 0 68 0 18 54 c15
43 25 57 49 67 27 11 35 10 80 -15 l49 -28 51 51 51 50 -22 46 c-25 52 -26 64
-10 99 8 18 25 30 57 39 l46 13 3 71 3 71 -51 18 c-86 31 -73 39 108 74 l62
13 0 38 0 39 -92 0 -92 0 -51 50 -51 51 -48 -27 c-46 -26 -49 -26 -82 -11 -26
13 -36 26 -48 64 l-14 48 61 63 61 62 -59 0 c-57 0 -62 -2 -88 -35 -17 -22
-37 -35 -51 -35 -23 0 -66 37 -66 58 0 8 -20 12 -60 12 -33 0 -60 -3 -60 -6z
m285 -232 c6 -5 25 -15 43 -22 30 -12 37 -10 81 13 l48 27 19 -23 c54 -61 61
-57 -100 -57 -144 0 -147 0 -141 20 9 27 -20 70 -46 70 -42 0 -61 -19 -57 -57
3 -34 1 -37 -37 -50 -140 -46 -207 -217 -137 -354 31 -63 93 -114 158 -131 24
-7 44 -16 44 -21 0 -4 5 -5 10 -2 6 3 10 -1 10 -10 0 -10 -5 -13 -12 -9 -8 5
-9 2 -3 -12 5 -10 11 -43 13 -71 4 -53 4 -53 -25 -53 -26 0 -31 5 -44 48 -12
40 -21 50 -58 69 l-43 22 -50 -25 c-28 -14 -53 -22 -57 -17 -3 4 -19 22 -34
39 l-28 31 22 46 c20 41 21 50 10 86 -10 36 -16 41 -59 53 l-47 14 0 59 0 59
45 11 c41 10 46 14 59 54 13 40 12 47 -7 86 l-20 42 43 43 43 42 41 -23 c37
-20 44 -21 82 -10 34 10 44 19 61 59 l21 46 24 -29 25 -28 31 32 32 31 15 -44
c8 -25 20 -49 25 -54z m-115 -29 c0 -34 -1 -36 -16 -21 -10 10 -14 23 -9 37
10 34 25 24 25 -16z m50 2 c0 -13 -4 -27 -10 -30 -6 -4 -10 8 -10 30 0 22 4
34 10 30 6 -3 10 -17 10 -30z m-73 -73 c-21 -23 -21 -42 -3 -67 12 -16 12 -22
-1 -42 -14 -21 -14 -26 1 -47 10 -15 12 -27 6 -31 -13 -8 -13 -52 -1 -60 6 -3
9 7 8 21 -1 15 3 29 8 31 18 6 11 -43 -7 -64 -21 -22 -23 -54 -6 -71 8 -8 8
-15 -2 -27 -10 -12 -10 -21 -2 -40 16 -34 5 -57 -22 -49 -77 23 -145 84 -167
151 -6 19 -9 64 -7 99 6 95 61 166 154 199 53 19 60 18 41 -3z m573 -1 c0 -16
-13 -22 -72 -35 -216 -48 -258 -58 -258 -61 0 -2 6 -29 14 -59 16 -62 12 -114
-15 -166 -24 -49 -79 -99 -125 -115 -34 -11 -40 -11 -48 2 -5 9 -4 24 2 37 6
14 6 29 1 39 -6 11 -5 23 3 36 9 15 9 26 1 44 -9 18 -9 27 0 36 8 8 8 19 0 41
-7 18 -7 32 -2 36 13 8 11 58 -3 72 -9 9 -9 15 0 24 17 17 15 48 -5 70 -16 17
-7 18 245 18 252 0 262 -1 262 -19z m-550 -38 c-1 -35 -2 -37 -15 -19 -10 13
-11 24 -4 37 14 28 19 23 19 -18z m50 2 c0 -8 -4 -17 -10 -20 -6 -4 -10 5 -10
20 0 15 4 24 10 20 6 -3 10 -12 10 -20z m280 -70 c0 -8 21 -22 50 -32 l50 -18
0 -57 0 -57 -47 -13 c-41 -12 -48 -18 -62 -55 -14 -41 -14 -45 8 -89 l22 -47
-41 -42 -41 -42 -50 26 -49 26 -37 -20 c-28 -15 -42 -31 -54 -65 -12 -33 -23
-46 -39 -48 -22 -4 -22 -1 -17 55 3 32 8 69 11 83 6 22 5 22 -4 5 -9 -17 -10
-18 -7 -2 1 13 19 24 56 37 65 22 96 44 138 98 50 66 60 136 32 241 -2 8 6 17
21 22 41 12 60 10 60 -6z m-333 -42 c-4 -17 -4 -17 -12 0 -4 9 -4 25 0 35 8
16 8 16 12 0 3 -10 3 -26 0 -35z m53 17 c0 -10 -4 -22 -10 -25 -6 -4 -10 7
-10 25 0 18 4 29 10 25 6 -3 10 -15 10 -25z m-6 -77 c4 -9 0 -23 -9 -32 -13
-14 -15 -12 -15 17 0 34 14 43 24 15z m-34 -95 c0 -30 -1 -31 -16 -16 -9 9
-14 24 -11 32 11 27 27 17 27 -16z m34 15 c4 -9 0 -23 -9 -32 -13 -14 -15 -12
-15 17 0 34 14 43 24 15z m-34 -88 c0 -14 -4 -25 -9 -25 -12 0 -19 21 -13 38
8 21 22 13 22 -13z m30 -6 c0 -10 -4 -19 -10 -19 -5 0 -10 12 -10 26 0 14 4
23 10 19 6 -3 10 -15 10 -26z m-34 -66 c-10 -10 -19 5 -10 18 6 11 8 11 12 0
2 -7 1 -15 -2 -18z m34 6 c0 -5 -4 -9 -10 -9 -5 0 -10 7 -10 16 0 8 5 12 10 9
6 -3 10 -10 10 -16z"/>
</g>
</svg>
